# Blender v2.65 (sub 0) OBJ File: ''
# www.blender.org
mtllib Coin.mtl
v 0.000000 0.150000 -0.025000
v 0.000000 0.150000 0.025000
v 0.029264 0.147118 -0.025000
v 0.029264 0.147118 0.025000
v 0.057403 0.138582 -0.025000
v 0.057403 0.138582 0.025000
v 0.083336 0.124720 -0.025000
v 0.083336 0.124720 0.025000
v 0.106066 0.106066 -0.025000
v 0.106066 0.106066 0.025000
v 0.124720 0.083336 -0.025000
v 0.124720 0.083336 0.025000
v 0.138582 0.057403 -0.025000
v 0.138582 0.057402 0.025000
v 0.147118 0.029264 -0.025000
v 0.147118 0.029264 0.025000
v 0.150000 0.000000 -0.025000
v 0.150000 -0.000000 0.025000
v 0.147118 -0.029264 -0.025000
v 0.147118 -0.029264 0.025000
v 0.138582 -0.057402 -0.025000
v 0.138582 -0.057403 0.025000
v 0.124720 -0.083336 -0.025000
v 0.124720 -0.083336 0.025000
v 0.106066 -0.106066 -0.025000
v 0.106066 -0.106066 0.025000
v 0.083336 -0.124720 -0.025000
v 0.083336 -0.124720 0.025000
v 0.057402 -0.138582 -0.025000
v 0.057402 -0.138582 0.025000
v 0.029264 -0.147118 -0.025000
v 0.029264 -0.147118 0.025000
v -0.000000 -0.150000 -0.025000
v -0.000000 -0.150000 0.025000
v -0.029264 -0.147118 -0.025000
v -0.029264 -0.147118 0.025000
v -0.057403 -0.138582 -0.025000
v -0.057403 -0.138582 0.025000
v -0.083336 -0.124720 -0.025000
v -0.083336 -0.124720 0.025000
v -0.106066 -0.106066 -0.025000
v -0.106066 -0.106066 0.025000
v -0.124721 -0.083335 -0.025000
v -0.124721 -0.083335 0.025000
v -0.138582 -0.057402 -0.025000
v -0.138582 -0.057402 0.025000
v -0.147118 -0.029263 -0.025000
v -0.147118 -0.029263 0.025000
v -0.150000 0.000000 -0.025000
v -0.150000 0.000000 0.025000
v -0.147118 0.029264 -0.025000
v -0.147118 0.029264 0.025000
v -0.138582 0.057403 -0.025000
v -0.138582 0.057403 0.025000
v -0.124720 0.083336 -0.025000
v -0.124720 0.083336 0.025000
v -0.106066 0.106066 -0.025000
v -0.106066 0.106066 0.025000
v -0.083335 0.124721 -0.025000
v -0.083335 0.124721 0.025000
v -0.057402 0.138582 -0.025000
v -0.057402 0.138582 0.025000
v -0.029263 0.147118 -0.025000
v -0.029263 0.147118 0.025000
vn 0.000000 0.727866 -0.685690
vn 0.000000 0.727866 0.685690
vn 0.142003 0.713889 0.685690
vn 0.142003 0.713889 -0.685690
vn 0.278542 0.672475 0.685690
vn 0.278542 0.672475 -0.685690
vn 0.404370 0.605213 0.685690
vn 0.404370 0.605213 -0.685690
vn 0.514664 0.514664 0.685690
vn 0.514664 0.514664 -0.685690
vn 0.605213 0.404370 0.685690
vn 0.605213 0.404370 -0.685690
vn 0.672475 0.278542 0.685690
vn 0.672475 0.278542 -0.685690
vn 0.713889 0.142003 0.685690
vn 0.713889 0.142003 -0.685690
vn 0.727866 0.000000 0.685690
vn 0.727866 0.000000 -0.685690
vn 0.713889 -0.142003 0.685690
vn 0.713889 -0.142003 -0.685690
vn 0.672475 -0.278542 0.685690
vn 0.672475 -0.278542 -0.685690
vn 0.605213 -0.404370 0.685690
vn 0.605213 -0.404370 -0.685690
vn 0.514664 -0.514664 0.685690
vn 0.514664 -0.514664 -0.685690
vn 0.404370 -0.605213 0.685690
vn 0.404370 -0.605213 -0.685690
vn 0.278542 -0.672475 0.685690
vn 0.278542 -0.672475 -0.685690
vn 0.142003 -0.713889 0.685690
vn 0.142003 -0.713889 -0.685690
vn 0.000000 -0.727866 0.685690
vn 0.000000 -0.727866 -0.685690
vn -0.142003 -0.713889 0.685690
vn -0.142003 -0.713889 -0.685690
vn -0.278542 -0.672475 0.685690
vn -0.278542 -0.672475 -0.685690
vn -0.404370 -0.605213 0.685690
vn -0.404370 -0.605213 -0.685690
vn -0.514664 -0.514664 0.685690
vn -0.514664 -0.514664 -0.685690
vn -0.605213 -0.404370 0.685690
vn -0.605213 -0.404370 -0.685690
vn -0.672475 -0.278542 0.685690
vn -0.672475 -0.278542 -0.685690
vn -0.713889 -0.142003 0.685690
vn -0.713889 -0.142003 -0.685690
vn -0.727866 0.000000 0.685690
vn -0.727866 0.000000 -0.685690
vn -0.713889 0.142003 0.685690
vn -0.713889 0.142003 -0.685690
vn -0.672475 0.278542 0.685690
vn -0.672475 0.278542 -0.685690
vn -0.605213 0.404370 0.685690
vn -0.605213 0.404370 -0.685690
vn -0.514664 0.514664 0.685690
vn -0.514664 0.514695 -0.685690
vn -0.404370 0.605213 0.685690
vn -0.404370 0.605213 -0.685690
vn -0.278542 0.672475 0.685690
vn -0.278542 0.672475 -0.685690
vn -0.142003 0.713889 0.685690
vn -0.142003 0.713889 -0.685690
usemtl Material
s 1
f 1//1 2//2 4//3
f 1//1 4//3 3//4
f 3//4 4//3 6//5
f 3//4 6//5 5//6
f 5//6 6//5 8//7
f 5//6 8//7 7//8
f 7//8 8//7 10//9
f 7//8 10//9 9//10
f 9//10 10//9 12//11
f 9//10 12//11 11//12
f 11//12 12//11 14//13
f 11//12 14//13 13//14
f 13//14 14//13 16//15
f 13//14 16//15 15//16
f 15//16 16//15 18//17
f 15//16 18//17 17//18
f 17//18 18//17 20//19
f 17//18 20//19 19//20
f 19//20 20//19 22//21
f 19//20 22//21 21//22
f 21//22 22//21 24//23
f 21//22 24//23 23//24
f 23//24 24//23 26//25
f 23//24 26//25 25//26
f 25//26 26//25 28//27
f 25//26 28//27 27//28
f 27//28 28//27 30//29
f 27//28 30//29 29//30
f 29//30 30//29 32//31
f 29//30 32//31 31//32
f 31//32 32//31 34//33
f 31//32 34//33 33//34
f 33//34 34//33 36//35
f 33//34 36//35 35//36
f 35//36 36//35 38//37
f 35//36 38//37 37//38
f 37//38 38//37 40//39
f 37//38 40//39 39//40
f 39//40 40//39 42//41
f 39//40 42//41 41//42
f 41//42 42//41 44//43
f 41//42 44//43 43//44
f 43//44 44//43 46//45
f 43//44 46//45 45//46
f 45//46 46//45 48//47
f 45//46 48//47 47//48
f 47//48 48//47 50//49
f 47//48 50//49 49//50
f 49//50 50//49 52//51
f 49//50 52//51 51//52
f 51//52 52//51 54//53
f 51//52 54//53 53//54
f 53//54 54//53 56//55
f 53//54 56//55 55//56
f 55//56 56//55 58//57
f 55//56 58//57 57//58
f 57//58 58//57 60//59
f 57//58 60//59 59//60
f 59//60 60//59 62//61
f 59//60 62//61 61//62
f 4//3 2//2 64//63
f 4//3 64//63 62//61
f 4//3 62//61 6//5
f 62//61 60//59 6//5
f 60//59 8//7 6//5
f 60//59 58//57 8//7
f 58//57 10//9 8//7
f 58//57 56//55 10//9
f 56//55 12//11 10//9
f 56//55 54//53 12//11
f 54//53 14//13 12//11
f 54//53 52//51 14//13
f 52//51 16//15 14//13
f 52//51 50//49 16//15
f 50//49 18//17 16//15
f 50//49 48//47 18//17
f 48//47 20//19 18//17
f 48//47 46//45 20//19
f 46//45 22//21 20//19
f 46//45 44//43 22//21
f 44//43 24//23 22//21
f 44//43 42//41 24//23
f 42//41 26//25 24//23
f 42//41 40//39 26//25
f 40//39 28//27 26//25
f 40//39 38//37 28//27
f 38//37 30//29 28//27
f 38//37 36//35 30//29
f 36//35 32//31 30//29
f 36//35 34//33 32//31
f 2//2 1//1 63//64
f 2//2 63//64 64//63
f 61//62 62//61 64//63
f 61//62 64//63 63//64
f 1//1 3//4 63//64
f 3//4 61//62 63//64
f 3//4 5//6 61//62
f 5//6 59//60 61//62
f 5//6 7//8 59//60
f 7//8 57//58 59//60
f 7//8 9//10 57//58
f 9//10 55//56 57//58
f 9//10 11//12 55//56
f 11//12 53//54 55//56
f 11//12 13//14 53//54
f 13//14 51//52 53//54
f 13//14 15//16 51//52
f 15//16 49//50 51//52
f 15//16 17//18 49//50
f 17//18 47//48 49//50
f 17//18 19//20 47//48
f 19//20 45//46 47//48
f 19//20 21//22 45//46
f 21//22 43//44 45//46
f 21//22 23//24 43//44
f 23//24 41//42 43//44
f 23//24 25//26 41//42
f 25//26 39//40 41//42
f 25//26 27//28 39//40
f 27//28 37//38 39//40
f 27//28 29//30 37//38
f 29//30 35//36 37//38
f 29//30 31//32 35//36
f 31//32 33//34 35//36
