# Blender v2.65 (sub 0) OBJ File: ''
# www.blender.org
mtllib Human3.mtl
v -0.200000 0.850000 0.200000
v 0.200000 0.850000 0.200000
v 0.200000 0.850000 -0.200000
v -0.200000 0.850000 -0.200000
vn 0.000000 1.000000 -0.000000
usemtl Material.004
s off
f 1//1 2//1 3//1
f 1//1 3//1 4//1
v -0.200000 0.850000 -0.200001
v 0.200000 0.850000 -0.200001
v 0.200000 -0.850000 -0.199999
v -0.200000 -0.850000 -0.199999
vn 0.000000 -0.000001 -1.000000
usemtl Material.001
s off
f 5//2 6//2 7//2
f 5//2 7//2 8//2
v -0.200000 -0.850000 0.199999
v 0.200000 -0.850000 0.199999
v 0.200000 0.850000 0.200001
v -0.200000 0.850000 0.200001
vn 0.000000 -0.000001 1.000000
usemtl Material.002
s off
f 9//3 10//3 11//3
f 9//3 11//3 12//3
v -0.200000 0.850000 0.200000
v -0.200001 0.850000 -0.200000
v -0.200000 -0.850000 -0.200000
v -0.199999 -0.850000 0.200000
vn -1.000000 -0.000001 0.000002
usemtl Material.005
s off
f 13//4 14//4 15//4
f 13//4 15//4 16//4
v 0.200000 -0.850000 0.200000
v 0.199999 -0.850000 -0.200000
v 0.200000 0.850000 -0.200000
v 0.200001 0.850000 0.200000
vn 1.000000 -0.000001 -0.000002
usemtl Material.003
s off
f 17//5 18//5 19//5
f 17//5 19//5 20//5
v 0.200000 -0.850000 -0.200000
v 0.200000 -0.850000 0.200000
v -0.200000 -0.850000 0.200000
v -0.200000 -0.850000 -0.200000
vn 0.000000 -1.000000 -0.000000
usemtl None
s off
f 21//6 22//6 23//6
f 21//6 23//6 24//6
